# xmcd
#
# Track frame offsets:
#	150
#	15722
#	41367
#	76280
#	80682
#	93750
#	114915
#	146480
#	157450
#	178420
#	196707
#	217790
#
# Disc length: 3109 seconds
#
# Revision: 4
# Processed by: cddbd v1.5.2PL0 Copyright (c) Steve Scherf et al.
# Submitted via: audiograbber 1.83.01
#
DISCID=950c230c
DTITLE=Das Dritte Ohr - Himmel oder Hölle (Digitally Remastered)
DYEAR=1982
DGENRE=Rock
TTITLE0=Himmel oder Hölle (Digitally Remastered)
TTITLE1=Plapper-Popper (Digitally Remastered)
TTITLE2=Wach gelegen (Digitally Remastered)
TTITLE3=Morgenstund hat Blei im Mund (Digitally Remastered)
TTITLE4=Nicht mein Tag (Digitally Remastered)
TTITLE5=Wo stehst du (Digitally Remastered)
TTITLE6=Ich frag' mich warum (Digitally Remastered)
TTITLE7=Vollmond (Digitally Remastered)
TTITLE8=Unsere Sache (Digitally Remastered)
TTITLE9=Night Of The Nights (Digitally Remastered)
TTITLE10=Aint´t Gonna Write No More Rubbish (Digitally Remastered)
TTITLE11=Heaven Or Hell (Digitally Remastered)
EXTD=YEAR: 1997
EXTT0=
EXTT1=
EXTT2=
EXTT3=
EXTT4=
EXTT5=
EXTT6=
EXTT7=
EXTT8=
EXTT9=
EXTT10=
EXTT11=
PLAYORDER=
